<?xml version="1.0" standalone="no"?><!-- Generator: Gravit.io --><svg xmlns="http://www.w3.org/2000/svg" xmlns:xlink="http://www.w3.org/1999/xlink" style="isolation:isolate" viewBox="0 0 195 35" width="195" height="35"><defs><clipPath id="_clipPath_117eT3WF4B6kr0uHkxDXqQ9YVV4hIbl9"><rect width="195" height="35"/></clipPath></defs><g clip-path="url(#_clipPath_117eT3WF4B6kr0uHkxDXqQ9YVV4hIbl9)"><linearGradient id="_lgradient_0" x1="0.08255203406813633" y1="0.5000011652177903" x2="0.8198909059786239" y2="0.5000011652177903" gradientTransform="matrix(186,0,0,29.91,3,0.897)" gradientUnits="userSpaceOnUse"><stop offset="0%" stop-opacity="1" style="stop-color:rgb(251,0,96)"/><stop offset="10%" stop-opacity="1" style="stop-color:rgb(242,0,95)"/><stop offset="20%" stop-opacity="1" style="stop-color:rgb(232,0,95)"/><stop offset="30.000000000000004%" stop-opacity="1" style="stop-color:rgb(223,0,95)"/><stop offset="40%" stop-opacity="1" style="stop-color:rgb(213,0,95)"/><stop offset="50%" stop-opacity="1" style="stop-color:rgb(204,0,94)"/><stop offset="60%" stop-opacity="1" style="stop-color:rgb(194,0,94)"/><stop offset="70%" stop-opacity="1" style="stop-color:rgb(185,0,94)"/><stop offset="80%" stop-opacity="1" style="stop-color:rgb(175,0,94)"/><stop offset="89.99999999999999%" stop-opacity="1" style="stop-color:rgb(166,0,94)"/><stop offset="99.99999999999999%" stop-opacity="1" style="stop-color:rgb(156,0,93)"/></linearGradient><path d=" M 3 0.897 L 3.259 1.506 C 5.813 7.504 11.551 11.246 18.571 11.491 L 18.571 11.491 L 32.984 11.491 C 40.039 11.491 46.61 13.316 52.059 16.789 L 52.059 16.789 L 59.259 21.378 C 59.259 21.378 54.179 13.842 52.284 11.491 L 52.284 11.491 C 44.753 2.149 36.614 0.897 26.182 0.897 L 26.182 0.897 L 3 0.897 Z  M 26.418 24.834 L 26.564 25.177 C 28.004 28.559 31.24 30.669 35.197 30.807 L 35.197 30.807 L 58.651 30.807 C 55.032 26.978 49.815 24.834 43.933 24.834 L 43.933 24.834 L 26.418 24.834 Z  M 3 10.326 L 3.259 10.935 C 5.813 16.933 11.552 20.675 18.571 20.92 L 18.571 20.92 L 40.867 20.92 C 47.921 20.92 54.493 22.745 59.942 26.218 L 59.942 26.218 L 67.142 30.807 C 67.142 30.807 62.061 23.271 60.166 20.92 L 60.166 20.92 C 52.636 11.579 44.496 10.326 34.064 10.326 L 34.064 10.326 L 3 10.326 Z  M 138.446 26.943 L 138.446 26.943 L 138.446 26.943 Q 138.475 26.711 139.086 22.609 L 139.086 22.609 L 139.086 22.609 Q 140.366 14.058 140.366 7.106 L 140.366 7.106 L 140.366 7.106 Q 140.366 4.808 139.959 3.848 L 139.959 3.848 L 139.959 3.848 Q 143.071 4.662 143.856 6.408 L 143.856 6.408 L 143.856 6.408 Q 146.096 5.157 148.598 5.157 L 148.598 5.157 L 148.598 5.157 Q 151.099 5.157 152.684 6.568 L 152.684 6.568 L 152.684 6.568 Q 154.27 7.978 154.27 10 L 154.27 10 L 154.27 10 Q 154.27 12.021 152.815 13.752 L 152.815 13.752 L 152.815 13.752 Q 151.361 15.483 148.83 16.326 L 148.83 16.326 L 148.83 16.326 Q 150.866 16.763 152.568 18.29 L 152.568 18.29 L 152.568 18.29 Q 154.27 19.817 154.27 22.057 L 154.27 22.057 L 154.27 22.057 Q 154.27 25.489 151.724 27.336 L 151.724 27.336 L 151.724 27.336 Q 149.179 29.183 145.296 29.183 L 145.296 29.183 L 145.296 29.183 Q 141.413 29.183 138.446 26.943 Z  M 150.168 10.683 L 150.168 10.683 Q 150.168 9.374 149.354 8.487 L 149.354 8.487 L 149.354 8.487 Q 148.539 7.6 147.056 7.6 L 147.056 7.6 L 147.056 7.6 Q 145.572 7.6 144.205 8.211 L 144.205 8.211 L 144.205 8.211 Q 144.205 9.985 143.435 17.141 L 143.435 17.141 L 143.435 17.141 Q 142.664 24.296 142.664 26.303 L 142.664 26.303 L 142.664 26.303 Q 143.944 26.827 145.136 26.827 L 145.136 26.827 L 145.136 26.827 Q 147.201 26.827 148.539 25.46 L 148.539 25.46 L 148.539 25.46 Q 149.877 24.093 149.877 22.027 L 149.877 22.027 L 149.877 22.027 Q 149.877 19.962 148.481 18.581 L 148.481 18.581 L 148.481 18.581 Q 147.085 17.199 144.583 17.083 L 144.583 17.083 L 144.496 16.035 L 144.496 16.035 Q 147.172 15.657 148.67 14.072 L 148.67 14.072 L 148.67 14.072 Q 150.168 12.487 150.168 10.683 L 150.168 10.683 Z  M 166.515 13.912 L 166.515 13.912 L 166.515 13.912 Q 164.625 13.912 163.141 16.457 L 163.141 16.457 L 163.141 16.457 Q 161.658 19.002 161.658 21.533 L 161.658 21.533 L 161.658 21.533 Q 161.658 26.827 164.392 26.827 L 164.392 26.827 L 164.392 26.827 Q 166.341 26.827 167.563 24.282 L 167.563 24.282 L 167.563 24.282 Q 168.784 21.737 168.784 18.566 L 168.784 18.566 L 168.784 18.566 Q 168.784 13.912 166.515 13.912 Z  M 164.043 11.294 L 164.043 11.294 L 164.043 11.294 Q 164.363 11.294 164.639 11.483 L 164.639 11.483 L 164.639 11.483 Q 164.916 11.672 164.916 11.876 L 164.916 11.876 L 164.916 11.876 Q 161.978 13.912 161.396 17.548 L 161.396 17.548 L 161.396 17.548 Q 162.007 15.919 162.894 14.727 L 162.894 14.727 L 162.894 14.727 Q 163.781 13.534 164.741 12.923 L 164.741 12.923 L 164.741 12.923 Q 166.574 11.789 168.319 11.789 L 168.319 11.789 L 168.319 11.789 Q 170.064 11.789 171.286 13.505 L 171.286 13.505 L 171.286 13.505 Q 172.507 15.221 172.507 18.101 L 172.507 18.101 L 172.507 18.101 Q 172.507 21.329 171.199 24.035 L 171.199 24.035 L 171.199 24.035 Q 169.744 27.089 167.068 28.252 L 167.068 28.252 L 167.068 28.252 Q 165.556 28.921 163.752 28.921 L 163.752 28.921 L 163.752 28.921 Q 161.221 28.921 159.345 26.958 L 159.345 26.958 L 159.345 26.958 Q 157.469 24.994 157.469 21.315 L 157.469 21.315 L 157.469 21.315 Q 157.469 17.635 159.273 14.828 L 159.273 14.828 L 159.273 14.828 Q 161.076 12.021 164.043 11.294 Z  M 187.08 29.358 L 187.08 29.358 L 187.08 29.358 Q 185.044 29.358 183.575 27.598 L 183.575 27.598 L 183.575 27.598 Q 182.106 25.838 180.826 22.667 L 180.826 22.667 L 180.826 22.667 Q 178.267 25.809 177.103 29.707 L 177.103 29.707 L 177.103 29.707 Q 174.922 27.903 174.922 26.507 L 174.922 26.507 L 174.922 26.507 Q 174.922 25.489 176.187 23.991 L 176.187 23.991 L 176.187 23.991 Q 177.452 22.493 179.896 20.224 L 179.896 20.224 L 179.896 20.224 Q 178.034 15.192 177.35 13.985 L 177.35 13.985 L 177.35 13.985 Q 176.667 12.778 176.231 12.196 L 176.231 12.196 L 176.231 12.196 Q 177.685 11.44 178.878 11.44 L 178.878 11.44 L 178.878 11.44 Q 179.837 11.44 180.448 12.254 L 180.448 12.254 L 180.448 12.254 Q 181.175 13.156 181.554 14.188 L 181.554 14.188 L 181.554 14.188 Q 181.932 15.221 182.121 15.817 L 182.121 15.817 L 182.121 15.817 Q 182.31 16.414 182.688 17.577 L 182.688 17.577 L 182.688 17.577 Q 186.848 13.505 187.284 11.178 L 187.284 11.178 L 187.284 11.178 Q 189 12.632 189 13.708 L 189 13.708 L 189 13.708 Q 189 14.465 188.476 15.25 L 188.476 15.25 L 188.476 15.25 Q 187.953 16.035 187.371 16.574 L 187.371 16.574 L 187.371 16.574 Q 186.789 17.112 185.466 18.202 L 185.466 18.202 L 185.466 18.202 Q 184.142 19.293 183.444 19.933 L 183.444 19.933 L 183.444 19.933 Q 184.462 22.755 186.179 25.431 L 186.179 25.431 L 186.179 25.431 Q 187.895 28.107 188.942 29.096 L 188.942 29.096 L 188.942 29.096 Q 187.895 29.358 187.08 29.358 Z  M 79.137 18.77 L 79.137 18.77 L 76.344 18.741 L 76.344 18.741 Q 75.152 18.741 74.512 18.77 L 74.512 18.77 L 74.512 18.77 Q 74.046 22.842 74.046 25.373 L 74.046 25.373 L 74.046 25.373 Q 74.046 27.903 74.221 28.921 L 74.221 28.921 L 74.221 28.921 Q 73.29 28.979 72.999 28.979 L 72.999 28.979 L 72.999 28.979 Q 71.341 28.979 70.614 28.398 L 70.614 28.398 L 70.614 28.398 Q 69.887 27.816 69.887 26.347 L 69.887 26.347 L 69.887 26.347 Q 69.887 24.878 70.701 19.293 L 70.701 19.293 L 70.701 19.293 Q 69.771 19.584 69.334 19.788 L 69.334 19.788 L 69.334 19.788 Q 69.276 19.148 69.276 18.828 L 69.276 18.828 L 69.276 18.828 Q 69.276 16.821 71.109 16.326 L 71.109 16.326 L 71.109 16.326 Q 71.661 12.341 71.778 9.433 L 71.778 9.433 L 71.778 9.433 Q 70.294 9.433 69.901 9.025 L 69.901 9.025 L 69.901 9.025 Q 69.509 8.618 69.509 7.222 L 69.509 7.222 L 69.509 7.222 Q 69.625 5.913 69.741 5.506 L 69.741 5.506 L 69.741 5.506 Q 73.028 5.942 76.955 5.942 L 76.955 5.942 L 76.955 5.942 Q 80.882 5.942 84.547 5.244 L 84.547 5.244 L 84.547 5.244 Q 84.14 8.298 80.824 8.909 L 80.824 8.909 L 80.824 8.909 Q 79.02 9.258 75.675 9.374 L 75.675 9.374 L 75.675 9.374 Q 75.646 9.753 74.832 16.152 L 74.832 16.152 L 74.832 16.152 Q 76.519 16.21 77.13 16.21 L 77.13 16.21 L 77.13 16.21 Q 79.893 16.21 81.057 15.25 L 81.057 15.25 L 81.057 15.25 Q 81.115 15.832 81.115 16.123 L 81.115 16.123 L 81.115 16.123 Q 81.115 18.77 79.137 18.77 Z  M 87.776 22.987 L 87.776 22.987 L 87.776 22.987 Q 87.776 24.354 88.285 25.213 L 88.285 25.213 L 88.285 25.213 Q 88.794 26.071 89.725 26.071 L 89.725 26.071 L 89.725 26.071 Q 91.092 26.071 92.328 24.471 L 92.328 24.471 L 92.328 24.471 Q 93.564 22.871 94.306 20.369 L 94.306 20.369 L 94.306 20.369 Q 95.048 17.868 95.048 15.614 L 95.048 15.614 L 95.048 15.614 Q 95.048 13.359 94.873 11.963 L 94.873 11.963 L 94.873 11.963 Q 95.746 11.905 96.095 11.905 L 96.095 11.905 L 96.095 11.905 Q 97.578 11.905 98.334 12.458 L 98.334 12.458 L 98.334 12.458 Q 99.091 13.01 99.091 14.436 L 99.091 14.436 L 99.091 14.436 Q 99.091 14.988 98.393 18.93 L 98.393 18.93 L 98.393 18.93 Q 97.695 22.871 97.695 25.242 L 97.695 25.242 L 97.695 25.242 Q 97.695 27.612 98.596 29.445 L 98.596 29.445 L 98.596 29.445 Q 96.415 29.067 95.397 27.83 L 95.397 27.83 L 95.397 27.83 Q 94.379 26.594 94.379 24.267 L 94.379 24.267 L 94.379 24.267 Q 94.379 23.86 94.495 22.696 L 94.495 22.696 L 94.495 22.696 Q 93.71 25.46 91.703 27.147 L 91.703 27.147 L 91.703 27.147 Q 89.695 28.834 87.761 28.834 L 87.761 28.834 L 87.761 28.834 Q 85.827 28.834 84.649 27.394 L 84.649 27.394 L 84.649 27.394 Q 83.471 25.954 83.471 23.307 L 83.471 23.307 L 83.471 23.307 Q 83.471 20.66 84.416 18.173 L 84.416 18.173 L 84.416 18.173 Q 85.361 15.686 87.252 13.956 L 87.252 13.956 L 87.252 13.956 Q 89.143 12.225 91.47 12.225 L 91.47 12.225 L 91.47 12.225 Q 92.808 12.225 94.204 12.865 L 94.204 12.865 L 94.204 12.865 Q 91.266 13.912 89.521 16.981 L 89.521 16.981 L 89.521 16.981 Q 87.776 20.05 87.776 22.987 Z  M 109.097 13.418 L 109.097 13.418 L 109.097 13.418 Q 108.282 13.418 107.642 13.956 L 107.642 13.956 L 107.642 13.956 Q 107.003 14.494 107.003 15.483 L 107.003 15.483 L 107.003 15.483 Q 107.003 16.472 107.686 17.344 L 107.686 17.344 L 107.686 17.344 Q 108.37 18.217 109.359 18.871 L 109.359 18.871 L 109.359 18.871 Q 110.348 19.526 111.351 20.21 L 111.351 20.21 L 111.351 20.21 Q 112.355 20.893 113.111 21.897 L 113.111 21.897 L 113.111 21.897 Q 113.867 22.9 113.954 24.122 L 113.954 24.122 L 113.954 24.122 Q 113.954 26.216 112.151 27.641 L 112.151 27.641 L 112.151 27.641 Q 110.348 29.067 107.672 29.067 L 107.672 29.067 L 107.672 29.067 Q 104.995 29.067 103.468 27.99 L 103.468 27.99 L 103.468 27.99 Q 101.941 26.914 101.941 25.518 L 101.941 25.518 L 101.941 25.518 Q 101.941 24.122 102.799 23.264 L 102.799 23.264 L 102.799 23.264 Q 103.657 22.406 104.937 22.406 L 104.937 22.406 L 104.937 22.406 Q 105.606 22.406 106.188 22.638 L 106.188 22.638 L 106.188 22.638 Q 105.257 23.627 105.257 24.733 L 105.257 24.733 L 105.257 24.733 Q 105.257 25.838 105.868 26.507 L 105.868 26.507 L 105.868 26.507 Q 106.479 27.176 107.526 27.176 L 107.526 27.176 L 107.526 27.176 Q 108.573 27.176 109.286 26.638 L 109.286 26.638 L 109.286 26.638 Q 109.999 26.1 109.999 25.242 L 109.999 25.242 L 109.999 25.242 Q 109.999 24.384 109.504 23.715 L 109.504 23.715 L 109.504 23.715 Q 109.01 23.046 108.268 22.537 L 108.268 22.537 L 108.268 22.537 Q 107.526 22.027 106.653 21.388 L 106.653 21.388 L 106.653 21.388 Q 105.781 20.748 105.039 20.093 L 105.039 20.093 L 105.039 20.093 Q 104.297 19.439 103.803 18.435 L 103.803 18.435 L 103.803 18.435 Q 103.308 17.432 103.308 16.239 L 103.308 16.239 L 103.308 16.239 Q 103.308 14.174 105.01 12.85 L 105.01 12.85 L 105.01 12.85 Q 106.712 11.527 109.257 11.527 L 109.257 11.527 L 109.257 11.527 Q 111.802 11.527 112.98 12.516 L 112.98 12.516 L 112.98 12.516 Q 114.158 13.505 114.158 14.828 L 114.158 14.828 L 114.158 14.828 Q 114.158 16.152 113.329 17.083 L 113.329 17.083 L 113.329 17.083 Q 112.5 18.013 111.191 18.013 L 111.191 18.013 L 111.191 18.013 Q 110.551 18.013 109.737 17.752 L 109.737 17.752 L 109.737 17.752 Q 110.377 17.199 110.726 16.486 L 110.726 16.486 L 110.726 16.486 Q 111.075 15.774 111.075 15.076 L 111.075 15.076 L 111.075 15.076 Q 111.075 14.377 110.493 13.898 L 110.493 13.898 L 110.493 13.898 Q 109.911 13.418 109.097 13.418 Z  M 123.466 14.814 L 123.466 14.814 L 123.466 14.814 Q 123.321 15.861 122.855 18.45 L 122.855 18.45 L 122.855 18.45 Q 121.866 23.947 121.866 26.594 L 121.866 26.594 L 121.866 26.594 Q 121.866 29.241 122.273 30.143 L 122.273 30.143 L 122.273 30.143 Q 120.034 29.561 119.19 28.354 L 119.19 28.354 L 119.19 28.354 Q 118.347 27.147 118.347 24.936 L 118.347 24.936 L 118.347 24.936 Q 118.347 22.987 118.957 19.599 L 118.957 19.599 L 118.957 19.599 Q 119.568 16.21 119.743 15.017 L 119.743 15.017 L 119.743 15.017 Q 118.23 15.279 116.514 16.035 L 116.514 16.035 L 116.514 16.035 Q 116.456 15.396 116.456 15.076 L 116.456 15.076 L 116.456 15.076 Q 116.456 13.534 117.387 12.967 L 117.387 12.967 L 117.387 12.967 Q 118.318 12.4 120.063 12.37 L 120.063 12.37 L 120.063 12.37 Q 120.266 10.189 120.266 9.229 L 120.266 9.229 L 120.266 9.229 Q 120.266 8.269 120.252 7.629 L 120.252 7.629 L 120.252 7.629 Q 120.237 6.989 120.237 6.669 L 120.237 6.669 L 120.237 6.669 Q 122.157 6.873 123.03 7.818 L 123.03 7.818 L 123.03 7.818 Q 123.902 8.764 123.902 10.509 L 123.902 10.509 L 123.902 10.509 Q 123.902 11.207 123.757 12.458 L 123.757 12.458 L 123.757 12.458 Q 126.2 12.4 127.335 11.498 L 127.335 11.498 L 127.335 11.498 Q 127.393 12.08 127.393 12.37 L 127.393 12.37 L 127.393 12.37 Q 127.393 13.767 126.898 14.305 L 126.898 14.305 L 126.898 14.305 Q 126.404 14.843 125.24 14.843 L 125.24 14.843 L 125.24 14.843 Q 124.077 14.843 123.466 14.814 Z " fill-rule="evenodd" fill="url(#_lgradient_0)"/></g></svg>